# AST/ASF file generated using VICON BodyLanguage
# -----------------------------------------------
:version 1.10
:name VICON
:units
  mass 1.0
  length 0.45
  angle deg
:documentation
   .ast/.asf automatically generated from VICON data using
   VICON BodyBuilder and BodyLanguage model FoxedUp or BRILLIANT.MOD
:root
   order TX TY TZ RX RY RZ
   axis XYZ
   position 0 0 0  
   orientation 0 0 0 
:bonedata
  begin
     id 1 
     name lhipjoint
     direction 0.535335 -0.74333 0.401095 
     length 2.04549 
     axis 0 0 0  XYZ
  end
  begin
     id 2 
     name lfemur
     direction 0.34202 -0.939693 0  
     length 6.95643  
     axis 0 0 20  XYZ
    dof rx ry rz
    limits (-160.0 20.0)
           (-70.0 70.0)
           (-60.0 70.0)
  end
  begin
     id 3 
     name ltibia
     direction 0.34192 -0.939729 0   
     length 5.55969   
     axis 0 0 20   XYZ
    dof rx
    limits (-10.0 170.0)
  end
  begin
     id 4 
     name lfoot
     direction 0.216943 -0.596046 0.773088   
     length 2.27918   
     axis -90 7.62852e-016 20   XYZ
    dof rx rz
    limits (-45.0 90.0)
           (-70.0 20.0)
  end
  begin
     id 5 
     name ltoes
     direction 1.53519e-011 -4.21748e-011 1   
     length 1.05562   
     axis -90 7.62852e-016 20   XYZ
    dof rx
    limits (-90.0 20.0)
  end
  begin
     id 6 
     name rhipjoint
     direction -0.576368 -0.719173 0.38806   
     length 2.1142  
     axis 0 0 0  XYZ 
  end
  begin
     id 7 
     name rfemur
     direction -0.34202 -0.939693 0   
     length 7.07928   
     axis 0 0 -20   XYZ
    dof rx ry rz
    limits (-160.0 20.0)
           (-70.0 70.0)
           (-70.0 60.0)
  end
  begin
     id 8 
     name rtibia
     direction -0.34202 -0.939693 0   
     length 5.79974   
     axis 0 0 -20   XYZ
    dof rx
    limits (-10.0 170.0)
 end
 begin
     id 9 
     name rfoot
     direction -0.189288 -0.520065 0.832888   
     length 2.42173  
     axis -90 -7.62852e-016 -20   XYZ
    dof rx rz
    limits (-45.0 90.0)
           (-20.0 70.0)
  end
  begin
     id 10 
     name rtoes
     direction -1.53574e-011 -4.21658e-011 1   
     length 1.14469   
     axis -90 -7.62852e-016 -20   XYZ
    dof rx
    limits (-90.0 20.0)
  end
  begin
     id 11 
     name lowerback
     direction -0.00135702 0.993803 0.111144   
     length 1.91308   
     axis 0 0 0   XYZ
    dof rx ry rz
    limits (-20.0 45.0)
           (-30.0 30.0)
           (-30.0 30.0)
  end
  begin
     id 12 
     name upperback
     direction -0.0056745 0.999813 0.0184631   
     length 1.9212   
     axis 0 0 0   XYZ
    dof rx ry rz
    limits (-20.0 45.0)
           (-30.0 30.0)
           (-30.0 30.0)
  end
  begin
     id 13 
     name thorax
     direction -0.00733434 0.999426 -0.0330788   
     length 1.94196   
     axis 0 0 0   XYZ
    dof rx ry rz
    limits (-20.0 45.0)
           (-30.0 30.0)
           (-30.0 30.0)
  end
  begin
     id 14 
     name lowerneck
     direction 0.0563074 0.996944 -0.0541571   
     length 2.34257   
     axis 0 0 0   XYZ
    dof rx ry rz
    limits (-20.0 45.0)
           (-30.0 30.0)
           (-30.0 30.0)
  end
  begin
     id 15 
     name upperneck
     direction -0.0544519 0.976166 -0.210085   
     length 2.32506   
     axis 0 0 0   XYZ
    dof rx ry rz
    limits (-20.0 45.0)
           (-30.0 30.0)
           (-30.0 30.0)
  end
  begin
     id 16
     name head
     direction -0.0226035 0.997615 -0.0652205  
     length 2.3648  
     axis 0 0 0   XYZ
    dof rx ry rz
    limits (-20.0 45.0)
           (-30.0 30.0)
           (-30.0 30.0)
  end
  begin
     id 17 
     name lclavicle
     direction 0.92109 0.381297 -0.0787716  
     length 4.0487  
     axis 0 0 0   XYZ
    dof ry rz
    limits (-20.0 10.0)
           (0.0 20.0)
  end
  begin
     id 18 
     name lhumerus
     direction 1 -4.48986e-011 3.56724e-027   
     length 4.94991   
     axis 180 -30 -90   XYZ
    dof rx ry rz
    limits (-60.0 90.0)
           (-90.0 90.0)
           (-90.0 90.0)
  end
  begin
     id 19
     name lradius
     direction 1 -4.48981e-011 8.62147e-027   
     length 2.7606   
     axis 180 -30 -90   XYZ
    dof rx
    limits (-10.0 170.0)
  end
  begin
     id 20
     name lwrist
     direction 1 -4.48989e-011 1.59799e-026   
     length 1.3803   
     axis -1.17785e-014 90 90   XYZ
    dof ry
    limits (-180.0 0.0)
 end
  begin
     id 21 
     name lhand
     direction 1 -4.48896e-011 3.19599e-026   
     length 0.843936   
     axis -2.03931e-014 90 90   XYZ
    dof rx rz
    limits (-90.0 90.0)
           (-45.0 45.0)
  end
  begin
     id 22 
     name lfingers
     direction 1 -4.48887e-011 6.39197e-026   
     length 0.680403   
     axis -4.07862e-014 90 90   XYZ
    dof rx
    limits (0.0 90.0)
  end
  begin
     id 23
     name lthumb
     direction 0.707107 -6.348e-011 0.707107   
     length 0.976926   
     axis -90 45 2.85299e-015   XYZ
    dof rx rz
    limits (-45.0 45.0)
           (-45.0 45.0)
  end
  begin
     id 24 
     name rclavicle
     direction -0.951104 0.307692 -0.026953   
     length 4.21801  
     axis 0 0 0   XYZ 
    dof ry rz
    limits (-10.0 20.0)
           (-20.0 0.0)
  end
  begin
     id 25 
     name rhumerus
     direction -1 -4.4896e-011 -1.8171e-018  
     length 4.32982   
     axis 180 30 90   XYZ
    dof rx ry rz
    limits (-90.0 60.0)
           (-90.0 90.0)
           (-90.0 90.0)
  end
  begin
     id 26 
     name rradius
     direction -1 -4.48959e-011 8.25165e-027   
     length 3.20057   
     axis 180 30 90   XYZ
    dof rx
    limits (-10.0 170.0)
  end
  begin
     id 27 
     name rwrist
     direction -1 -4.48997e-011 1.59799e-026   
     length 1.60029   
     axis -1.17785e-014 -90 -90   XYZ
    dof ry
    limits (-180.0 0.0)
  end
  begin
     id 28
     name rhand
     direction -1 -4.49023e-011 3.19599e-026   
     length 0.960433   
     axis -2.03931e-014 -90 -90   XYZ
    dof rx rz
    limits (-90.0 90.0)
           (-45.0 45.0)
  end
  begin
     id 29
     name rfingers
     direction -1 -4.48802e-011 6.39197e-026   
     length 0.774326   
     axis -4.07862e-014 -90 -90   XYZ
    dof rx
    limits (0.0 90.0)
  end
  begin
     id 30
     name rthumb
     direction -0.707107 -6.34876e-011 0.707107   
     length 1.11178   
     axis -90 -45 -2.85299e-015   XYZ
    dof rx rz
    limits (-45.0 45.0)
           (-45.0 45.0)
  end
:hierarchy
  begin
    root lhipjoint rhipjoint lowerback
    lhipjoint lfemur
    lfemur ltibia
    ltibia lfoot
    lfoot ltoes
    rhipjoint rfemur
    rfemur rtibia
    rtibia rfoot
    rfoot rtoes
    lowerback upperback
    upperback thorax
    thorax lowerneck lclavicle rclavicle
    lowerneck upperneck
    upperneck head
    lclavicle lhumerus
    lhumerus lradius
    lradius lwrist
    lwrist lhand lthumb
    lhand lfingers
    rclavicle rhumerus
    rhumerus rradius
    rradius rwrist
    rwrist rhand rthumb
    rhand rfingers
end

#!OML:ASF C:\KaitlinTest1\Natural Motions\Nikki\Session 2\Nikki.ASF
:FULLY-SPECIFIED
:DEGREES
446
root -18.8611 16.6283 5.06771 -154.909 85.7241 -164.868
lowerback -13.5472 -1.68929 -0.13745
upperback -4.10319 -2.00496 -0.53375
thorax 3.25735 -0.915094 -0.796508
lowerneck -1.78374 1.5936 8.41066
upperneck 27.3846 3.89318 -5.65363
head 9.10161 2.55705 -3.01584
rclavicle 2.56432e-014 1.11319e-014
rhumerus -42.7426 -22.2095 -79.0283
rradius 18.4001
rwrist 29.2481
rhand -35.9814 3.20623
rfingers 7.12502
rthumb -9.09181 -26.5778
lclavicle 2.56432e-014 1.11319e-014
lhumerus -42.5009 16.5208 80.1227
lradius 24.024
lwrist -40.3875
lhand -32.7738 3.56814
lfingers 7.12502
lthumb -5.99581 33.4633
rfemur -7.71567 -16.9285 21.0602
rtibia 11.2581
rfoot -10.8509 12.0312
rtoes -2.06736e-014
lfemur -9.82437 11.9469 -17.8423
ltibia 9.58729
lfoot -2.10185 -16.7286
ltoes -1.43125e-014
447
root -18.8608 16.6291 5.06734 -155.219 85.7444 -165.188
lowerback -13.5728 -1.69465 -0.161959
upperback -4.09941 -2.008 -0.543538
thorax 3.27563 -0.916481 -0.794243
lowerneck -1.7806 1.5984 8.44463
upperneck 27.3795 3.90789 -5.70014
head 9.10169 2.56283 -3.03674
rclavicle -1.963e-015 1.98785e-015
rhumerus -42.727 -22.1484 -79.0805
rradius 18.4278
rwrist 29.2319
rhand -35.9674 3.1392
rfingers 7.12502
rthumb -9.07832 -26.6454
lclavicle -1.963e-015 1.98785e-015
lhumerus -42.4542 16.4575 80.195
lradius 23.9634
lwrist -40.0291
lhand -32.8984 3.51163
lfingers 7.12502
lthumb -6.1161 33.4033
rfemur -7.73618 -16.8681 21.0192
rtibia 11.2738
rfoot -10.8116 11.998
rtoes -4.37326e-014
lfemur -9.81876 11.9547 -17.8804
ltibia 9.55966
lfoot -2.07861 -16.7275
ltoes -4.13472e-014
448
root -18.8605 16.6289 5.06756 -155.011 85.741 -164.949
lowerback -13.5443 -1.68394 -0.136323
upperback -4.09004 -1.99787 -0.552351
thorax 3.26889 -0.911843 -0.815577
lowerneck -1.79152 1.60159 8.46377
upperneck 27.3777 3.90485 -5.68486
head 9.10319 2.56429 -3.03484
rclavicle 2.28602e-015 -5.56597e-015
rhumerus -42.7319 -22.1765 -79.084
rradius 18.4231
rwrist 29.2025
rhand -35.9699 3.15404
rfingers 7.12502
rthumb -9.08072 -26.6305
lclavicle 2.28602e-015 -5.56597e-015
lhumerus -42.441 16.3816 80.2276
lradius 24.0013
lwrist -39.9081
lhand -32.7994 3.60146
lfingers 7.12502
lthumb -6.02058 33.4959
rfemur -7.70812 -16.8286 21.0269
rtibia 11.278
rfoot -10.8033 11.9601
rtoes -3.33958e-014
lfemur -9.7854 11.9586 -17.8519
ltibia 9.55829
lfoot -2.07512 -16.7309
ltoes -3.81667e-014
449
root -18.8594 16.6287 5.06732 -154.804 85.7472 -164.764
lowerback -13.6071 -1.6799 -0.127788
upperback -4.07086 -1.99388 -0.543401
thorax 3.32306 -0.909701 -0.812648
lowerneck -1.81278 1.60471 8.44748
upperneck 27.3483 3.90487 -5.68661
head 9.09635 2.56054 -3.0322
rclavicle 1.44367e-014 4.77083e-015
rhumerus -42.6949 -22.1454 -79.1039
rradius 18.4478
rwrist 29.1892
rhand -35.9555 3.15244
rfingers 7.12502
rthumb -9.06682 -26.6327
lclavicle 1.44367e-014 4.77083e-015
lhumerus -42.4131 16.4719 80.1823
lradius 23.987
lwrist -40.1093
lhand -32.7527 3.61513
lfingers 7.12502
lthumb -5.97543 33.5109
rfemur -7.73298 -16.8148 21.0395
rtibia 11.2851
rfoot -10.8154 11.9698
rtoes -5.40694e-014
lfemur -9.79019 11.9702 -17.8508
ltibia 9.53534
lfoot -2.08495 -16.7196
ltoes -3.49861e-014
450
root -18.8583 16.6287 5.06727 -155.026 85.7786 -165.016
lowerback -13.6483 -1.68004 -0.160883
upperback -4.08688 -1.98796 -0.545771
thorax 3.32969 -0.90621 -0.796438
lowerneck -1.81228 1.60249 8.42589
upperneck 27.3815 3.90361 -5.66841
head 9.10721 2.56086 -3.0225
rclavicle 3.08862e-014 1.90833e-014
rhumerus -42.6981 -22.0769 -79.1413
rradius 18.4623
rwrist 29.0819
rhand -35.925 3.05273
rfingers 7.12502
rthumb -9.03744 -26.7337
lclavicle 3.08862e-014 1.90833e-014
lhumerus -42.4393 16.4721 80.186
lradius 23.9864
lwrist -40.0915
lhand -32.7337 3.61532
lfingers 7.12502
lthumb -5.95712 33.5116
rfemur -7.76172 -16.8699 21.0207
rtibia 11.2789
rfoot -10.8188 12.0304
rtoes 0
lfemur -9.81643 11.9906 -17.8941
ltibia 9.53936
lfoot -2.08635 -16.7391
ltoes 6.36111e-015
451
root -18.8595 16.6293 5.06752 -155.283 85.7635 -165.234
lowerback -13.6011 -1.68411 -0.17427
upperback -4.06862 -1.99302 -0.550599
thorax 3.32354 -0.909382 -0.793713
lowerneck -1.83771 1.60825 8.44439
upperneck 27.387 3.91294 -5.6906
head 9.11534 2.56437 -3.0325
rclavicle 5.54112e-015 0
rhumerus -42.6806 -22.1719 -79.0776
rradius 18.4243
rwrist 29.214
rhand -35.9081 3.06255
rfingers 7.12502
rthumb -9.02114 -26.7246
lclavicle 5.54112e-015 0
lhumerus -42.4088 16.4327 80.2142
lradius 23.9924
lwrist -39.9968
lhand -32.742 3.59686
lfingers 7.12502
lthumb -5.9651 33.4929
rfemur -7.70853 -16.8237 20.9972
rtibia 11.2708
rfoot -10.8344 11.9662
rtoes -3.97569e-015
lfemur -9.79254 11.9693 -17.8912
ltibia 9.55401
lfoot -2.09424 -16.7237
ltoes -2.38542e-014
452
root -18.8611 16.6294 5.06765 -155.385 85.7363 -165.331
lowerback -13.5718 -1.68856 -0.166453
upperback -4.06438 -2.00037 -0.557024
thorax 3.3115 -0.913296 -0.805209
lowerneck -1.85412 1.61364 8.42835
upperneck 27.381 3.90775 -5.64506
head 9.11504 2.56373 -3.01401
rclavicle 5.36719e-015 -3.57812e-015
rhumerus -42.6843 -22.3076 -79.0027
rradius 18.4018
rwrist 29.3526
rhand -35.914 3.1003
rfingers 7.12502
rthumb -9.02678 -26.6866
lclavicle 5.36719e-015 -3.57812e-015
lhumerus -42.3909 16.4294 80.2138
lradius 23.928
lwrist -40.0153
lhand -32.9191 3.51395
lfingers 7.12502
lthumb -6.13607 33.4051
rfemur -7.70359 -16.8358 21.0053
rtibia 11.2582
rfoot -10.8225 11.9498
rtoes 2.46493e-014
lfemur -9.80832 11.9418 -17.8823
ltibia 9.58238
lfoot -2.09809 -16.7272
ltoes 9.54166e-015
453
root -18.8595 16.6293 5.06685 -155.182 85.7512 -165.122
lowerback -13.5643 -1.692 -0.160938
upperback -4.08624 -2.00548 -0.542599
thorax 3.28486 -0.915531 -0.79344
lowerneck -1.78726 1.61417 8.41752
upperneck 27.3557 3.91967 -5.6616
head 9.09448 2.56805 -3.01725
rclavicle -4.22666e-014 -7.15625e-015
rhumerus -42.7112 -22.207 -79.0276
rradius 18.4071
rwrist 29.2739
rhand -35.9205 3.07567
rfingers 7.12502
rthumb -9.03313 -26.7109
lclavicle -4.22666e-014 -7.15625e-015
lhumerus -42.4594 16.4663 80.1838
lradius 23.9226
lwrist -40.1172
lhand -32.8878 3.51288
lfingers 7.12502
lthumb -6.10593 33.4049
rfemur -7.68727 -16.8725 21.0105
rtibia 11.245
rfoot -10.8354 12.0133
rtoes -5.40694e-014
lfemur -9.79812 11.9616 -17.8737
ltibia 9.59391
lfoot -2.12572 -16.7058
ltoes 5.40694e-014
454
root -18.8589 16.6283 5.06657 -154.839 85.7465 -164.784
lowerback -13.5979 -1.68473 -0.130269
upperback -4.05846 -2.00029 -0.551721
thorax 3.33074 -0.913161 -0.820931
lowerneck -1.842 1.62119 8.45901
upperneck 27.3543 3.91759 -5.66248
head 9.1051 2.56897 -3.02445
rclavicle 1.33186e-014 6.36111e-015
rhumerus -42.6568 -22.2457 -79.0612
rradius 18.3878
rwrist 29.2769
rhand -35.9453 3.14143
rfingers 7.12502
rthumb -9.05705 -26.6441
lclavicle 1.33186e-014 6.36111e-015
lhumerus -42.4064 16.4505 80.1846
lradius 23.9339
lwrist -40.0906
lhand -32.8828 3.55796
lfingers 7.12502
lthumb -6.10105 33.4501
rfemur -7.68503 -16.8937 21.0497
rtibia 11.2321
rfoot -10.8698 12.0258
rtoes 2.78299e-014
lfemur -9.80444 11.9688 -17.8459
ltibia 9.60696
lfoot -2.14748 -16.7153
ltoes 2.06736e-014
455
root -18.858 16.629 5.06622 -154.66 85.7527 -164.629
lowerback -13.6339 -1.67534 -0.109928
upperback -4.06512 -1.98949 -0.55528
thorax 3.34255 -0.907413 -0.835294
lowerneck -1.85342 1.61518 8.48791
upperneck 27.373 3.91544 -5.69631
head 9.1147 2.56812 -3.04157
rclavicle 7.90169e-015 -2.38542e-015
rhumerus -42.6839 -22.2889 -79.0398
rradius 18.4017
rwrist 29.3368
rhand -35.9554 3.11696
rfingers 7.12502
rthumb -9.06676 -26.6682
lclavicle 7.90169e-015 -2.38542e-015
lhumerus -42.3975 16.3983 80.2186
lradius 23.9254
lwrist -40.0147
lhand -32.93 3.53626
lfingers 7.12502
lthumb -6.14663 33.4271
rfemur -7.70955 -16.8571 21.05
rtibia 11.2126
rfoot -10.8051 12.023
rtoes 3.73715e-014
lfemur -9.83048 11.9798 -17.846
ltibia 9.62089
lfoot -2.13264 -16.7287
ltoes -4.77083e-015
456
root -18.8575 16.6298 5.06618 -154.656 85.7559 -164.64
lowerback -13.6389 -1.68102 -0.126006
upperback -4.08322 -1.99441 -0.543996
thorax 3.32722 -0.909515 -0.815058
lowerneck -1.80626 1.6162 8.45322
upperneck 27.3429 3.91851 -5.67753
head 9.09445 2.56833 -3.02884
rclavicle -2.23633e-016 -9.54166e-015
rhumerus -42.6813 -22.1745 -79.089
rradius 18.4121
rwrist 29.211
rhand -36.005 3.1834
rfingers 7.12502
rthumb -9.11466 -26.5996
lclavicle -2.23633e-016 -9.54166e-015
lhumerus -42.4388 16.3792 80.2494
lradius 23.9489
lwrist -39.9578
lhand -32.9827 3.57416
lfingers 7.12502
lthumb -6.19753 33.4635
rfemur -7.72089 -16.853 21.0496
rtibia 11.2143
rfoot -10.7928 12.0291
rtoes -6.04305e-014
lfemur -9.84972 11.9828 -17.8517
ltibia 9.62658
lfoot -2.12934 -16.7384
ltoes -2.70347e-014
